<mxfile host="app.diagrams.net" modified="2023-08-17T09:28:43.283Z" agent="Mozilla/5.0 (Windows NT 10.0; Win64; x64) AppleWebKit/537.36 (KHTML, like Gecko) Chrome/115.0.0.0 Safari/537.36" etag="V8lkqhBR_7UrYUYdL9qh" version="21.6.8" type="github">
  <diagram name="第 1 页" id="5WBBBVx6fMqL-8ATS71t">
    <mxGraphModel dx="909" dy="489" grid="1" gridSize="10" guides="1" tooltips="1" connect="1" arrows="1" fold="1" page="1" pageScale="1" pageWidth="827" pageHeight="1169" math="0" shadow="0">
      <root>
        <mxCell id="0" />
        <mxCell id="1" parent="0" />
        <mxCell id="JtydHf2yTpNfP8-nZof8-18" value="" style="rounded=0;whiteSpace=wrap;html=1;dashed=1;" vertex="1" parent="1">
          <mxGeometry x="690" y="350" width="194" height="150" as="geometry" />
        </mxCell>
        <mxCell id="JtydHf2yTpNfP8-nZof8-9" value="" style="rounded=0;whiteSpace=wrap;html=1;dashed=1;" vertex="1" parent="1">
          <mxGeometry x="385" y="140" width="495" height="190" as="geometry" />
        </mxCell>
        <mxCell id="JtydHf2yTpNfP8-nZof8-11" style="edgeStyle=orthogonalEdgeStyle;rounded=0;orthogonalLoop=1;jettySize=auto;html=1;exitX=1;exitY=0.5;exitDx=0;exitDy=0;entryX=0;entryY=0.75;entryDx=0;entryDy=0;curved=1;" edge="1" parent="1" source="JtydHf2yTpNfP8-nZof8-2" target="JtydHf2yTpNfP8-nZof8-3">
          <mxGeometry relative="1" as="geometry" />
        </mxCell>
        <mxCell id="JtydHf2yTpNfP8-nZof8-2" value="" style="shape=image;verticalLabelPosition=bottom;verticalAlign=top;imageAspect=0;aspect=fixed;image=data:image/png,iVBORw0KGgoAAAANSUhEUgAAAMgAAADICAYAAACtWK6eAAAAAXNSR0IArs4c6QAAGABJREFUeF7tnQnUJUV1x3813W/QKKIEZFVQwyJLQBQZDRAMRNmUnRBAZTVRHJElgBoIyK4CioNGkGUgAcKmqCyiGBHZwRVEgiyKYEQkUQ7ozKue9tRUD4zffN/rquqq9/p9feucOXDOd++tuv96/9eva/lfhTRBQBCYEgEl2AgCgsDUCAhB5NMhCAxAQAgiHw9BQAginwFBIAwBeYKE4SZeHUFACNKRiZY0wxAQgoThJl4dQUAI0pGJljTDEBCChOEmXh1BQAjSkYmWNMMQEIKE4SZeHUFACNKRiZY0wxAQgoThJl4dQUAI0pGJljTDEBCChOEmXh1BQAjSkYmWNMMQEIKE4SZeHUFACNKRiZY0wxAQgoThJl4dQUAI0pGJljTDEBCChOEmXh1BQAjSkYmWNMMQEIKE4SZeHUFACNKRiZY0wxAQgoThJl4dQUAI0pGJljTDEBCChOEmXh1BQAjSkYmWNMMQEIKE4SZeHUFACNKRiZY0wxAQgoThJl4dQUAI0pGJljTDEBCChOEmXh1BQAjSkYmWNMMQEIKE4SZeHUFACNKRiZY0wxAQgoTh1tRruZmwcgGrACsrWLmEVcx/TeASnlDwuPkv8EQGj8+3//9U047F3w8BIYgfXsHWOWwG7ArsAbwyMNCTwKXAFRpuDowhbh4ICEE8wPI1zeHvgbeXsKuC1X39B9mX8KiCK4AbNHwjZmyJ9QICQpD4n4Zlcvgg8F5gjfjhJ434IDBXwxzgd0PqsxPdCEEiTnMPDiotOdaOGNYn1E8VzOnDWT5OYjs1AkKQCJ+ODPZUMBuYFSFcjBC3l/DZAi6OEazLMYQgDWY/h7cARwPbNAiT0vU64HgNt6XsZDrHFoIEzm4PDizhNGDpwBDDcntGwWF9OGdYHU6nfoQgAbOZw2eADwW4jtLlTA0Hj3IA49i3EMRz1nK4Efg7T7e2mH9Lw5ZtGcw4jEMI4jFLOfy6wSafR09JTZ/UsELSHqZRcCGI42Rm8LCC1ziat9qshEcKeG2rB9mSwQlBHCYig3MV7OdgOjYmJZxXwP5jM+ARDVQIUgN8D95fwudGND9Ju1XwgT58PmknYx58uhLkpTm8FbtPsUQr4Wc53DUP/mfQ/GWwk4KrxnyOBw6/hJ0L+FJNjqtnsIWC1aawu0nDncBz0w2r6UKQl2SwrbKEMLvZkxJj4uRVu82TLtdWm4D/DSw13SZ9Qj7zgLdNtZnYg/eV8AVHDL4NmF38uwu4HnjW0a+1ZmNNkB5sXMJu5l/oadkSzi3ggAkzlOdwB7BRa2cu7sC+p2ETQC8etgcfKAPPdVWnjS9XcHkf7oo73OFFG0uCZLCPgt2AbSNBtbWGry+K1YNDSjg9UuyxCKPg0D6csdhgl8/gNgWvi5DAtSVcXsAFEWINNcS4EWS1Hpxcwj9GRukMDYdWMc0H447psqTrilO19GueIr8xPhnsqOrfTVzDL7RTcEkfPgL83MtxhMZjQ5AMdgFOUfBXCfC6UtvbfuTw8eoAYoJuWh/SHGw8xoyyB7NLODP2iM0CCXBUAVfGjp0i3lgQJIeTDagpAKhifkXDDkvBmgXcDrwiYV9tDv1/Gcwyq3sZ7KXgPxIO9hRtnyatbq0nSA8uMy/hiVH8iIZTMjizuteRuLv2hl+0sld9WTyQcqTVC/zuKftoGrvVBBkGOUp4LIPt5sOzOTzUFNDp4J/BWtVT5HwF+6TMqe0kaS1BhkGO6oV0bw03eK73p/zMjDz24itaud0o3SnloNpMklYSJDE5/h94tIRbC7uUu/CpkbjPlJ+vFLFv1LDVosDVsrq5a28OOCZ5P2srSVpHkNwut5qbek3aDcD3S7i9ALO7a0gxsOXwdKrJr+u7jX/X9uTyo3VjMycOVHV6oYTtgRfX+Qz4+8c0nNTAP7pr2wiyWg63GrXBgEwXiapd6nsHO4NtFFwb0Od0djlM+2+Wvi63wnjm33oB4DynYPM+3BPgm8SlVQQJXUWqHs9mGfjhEJRC+w3pa4x8btGwaeh4czgFODLA/ypt97xa0VpDkBw2B24KQOUoDacG+D3vksGDiTYgmwxr5L4aVsTeogxqmV2eN5u7XpezFPxTH84O6jSyU5sIcjXwLp/8Sti9gMt9fCaxXTqH3zeMMS3dS9i2ACMdFNxmwjoL4DJgXdcgJfy8gI0XHXtx9Uth1wqCVKdyzX0C5xaJHMyEtRfA/c4dd8iwhL1iiM+FkETBQf0WXFRrBUFy+ATwL66fvVjkMP3lVqHEKJVIm4CAOVXQt3q/jVsPNizhOx46Yt/W8LbGHTcM0AaCmMtO97re54j9+zSDvRVc1BDH6ep+jIbjYyWX25d28/Lu2sxFLrNMP7I2coJUm1DnOyJwj4Y3Odo6mQVMmlPcaWL0aQ2HxMzFR1fMaAEUcFDM/n1jjZwgOVzjevEp9tOj+ok1jiqJvvMcZF/C3CLyWawMdlfwX44D+o229+D/4Ggf3awNBHnccWMw+tOjIohZBVt4F0TaEgh8VXuuLDpgaK4z/8S1dsoMWG8+3OcQN4nJSAmyFKxR1CiLLJb1ERo+GRuFHL6JyHFOBes3ta2SFbX5bCKWsEMBX4k6AI9gIyWIz7XOEt5ZwNc8cnMyHcZpVaeBtNPo+ZuWMYeX2x16pxqLk9yVjzmU2lgjJUgO/wYcWztKK7dhxAOCjpIMip9B8jsPLvm10Sah+uKKOfzKJWejqlLYql0jaaMmiHl0vtMh82c0vMzBzttkTEsZeOcZ6LC4mEVgiMndcisOsZxD0Ov1CAsUjZogRlzsHQ4g3VnpNjmY+pnkdp3/X/28OmN9rIbjUmRb6Y692SH21zVs7WCXxGTUBDGSlzs6ZJZsVzWD9yiY6zCGzpmUsEuRSHo1B6NauYUDqF/WiW80DhrDSAnSg4sdNa6SEaQHbyjhew4T1TmTDNacB6bEdPTmSpBKS2vP6ANwDDhSgniUFUhGEHMcK4e+I15dMvujbnY7cCBWrgRJuFDgNJejJsgcc2qzbqRGbKyANersQv9ebVy9PtR/mvrdpcHlHSEofdeCRF1fxTIbf4e7IKzhVcAvXWx9bTI4y9TK8PWb5vbJXtCB1XN4xBG/T2mPk96OMZ3NRvoE8ZH5jHnEfSI6ud0tNkIP0ioEFGzch7tTAJLBngr+0zH283KojvZRzUZNEOe7GIlPdmbVxtXyUdEd32D36TDRBaeMPZ/Yf6a879RBRKOREsTkkVtJnmUccnpaw/rAEw623iYZXKDgvd6O09PhMxo+nCi1lXP4MbCsQ/xkG8QOfS80GTlBMjhPwb6OAw6RonEKncHOakwUx50Sama0qYZbmoWY3NtT9+wKnV6XeWCabSCIz/2AH1anSxfWsIjdcritKuEWO/Q4xbtau23ehuS0fA7fADZwcS7hgALOdbFNZTNyggAGNHMnpOeSZMp18R580Kibu4xjutqkXAzx2Pcy8Opq5fJ/R4l1Gwhi3kO8JH8SKl68PIMfKbuk3MV2t7ZyO9FbQL3Da7SVMh1pawVBMthXwXk+SKT6pvP8jewz5NbblvDuIkHRHCMgp6w2lnNrw88rM9hWEMQMJERdPSFJjFjayE6QOn+K4hourLIVN+TCWofe5ACu1bBd7LGExGsTQcyhQaOb9FKfRFKQJIe/qWRQM5+xjLltdImdQHIYGLfU8K024NkaghgwcluzLkT+3hyLMFquTrfUXID3ue3oEq/lNqdrOCziGFfK4X2ut0UX73fUZ68mYtAqglQkMU+RzQImy2wgnh2TKBmco+CAgLGMk8t3dRjek+W4iBiGHCElLH6l7dPb9ZxWcpxbR5AItTqeUHBzCQ+WcH8GP55vd25DmjmCYoQipuv7yDxtd7SfCwEHeE0G6ypYz/wrrVRoCDEWdX+4bl48KTCVyd1aR5DqKXI0tl55tFbaoyRzA6QsTVGfr2KPuUyrpmCjPnzfJ6kctjBP1dLeE3c5LuIU3hxe7MPeTsZDNGolQSqSGDFrI2odu3kf465kasyTxOXMWOzxporn/VKe6r1sUenpVIk2idtagpikejC7hDObJDiF75e0fYl8yjW2+ebE3qOeDs2XHMv2YI7j9WhffLy/sHw7aGLfaoKYxDLYX8EXmyQ5ha+3Uso0IYkvOczq4u3AJrHnQMHB/TRfgNGG2nqCVCTxuWDjDI6CTfrgVbgHWCmDm5UVshunZq4LvNGlcu3iSfVggxJ+EDvREt5TjEHZibEgSMguu+OEnqjDNLFM2TajChlz78BxyP5m1Quw0f6qLes8MXoOHwVO9O+11iPlnZPazl0NWk2QDP7dlDxwTSbArpEoWaqX1oA8pnQxq3eFFX/zJocJmtvy2GbFKklr+5OklQSpvrUOBf4yyaxUQUs4u/An4KrVgcaohWVS5mliK7hUwUm+e0IZOCnPNBz/fSUcUbSwVn2rCJLDVtXS7hsaAu7k7nNitAezFsCBCvZzCt5eI6NmOcf1rFPCRZIlEDKFdUo7tu+2Bb7WEKQHHy7tLuqMIYHj9PMqg10V7OUokTqkoUfp5roSLizg0rpoObhqKNeFcvp7CecU9k586A6/Uz8uRm0gyDIZnKZgf5cBR7Ixeq9GB2vKw40Z7KTsC2rUmoiRxh8zzN0lnFjAlwcEXaEHp5my0DE7rol1k4Z3A48Nsc/Jnmqj6746Vm6eGtHX2CdkZa70GqC/U8KdxWBxhuUzOEaNsCbFiGbEFOw0L/NGZWbSlsEe5iCpsl8aa6U+WWAUNWfA7r7HYWLiN7InSHVXwFS3fUnEhMyG1tUlPKbgF9qS4hfAApc+zAdAwTFAV2VIf1DCcTVPk8WhNIVw1lawVmkJY/4ZET4nfQGXOal+Zu2ordjD0NtICNLgIs1kAN0LfG0GzJ0PPw1EcNXqqXFgoP90c6t9mgxKOINtgXcpWwB0pRjgmGMuLu9LMfpaPMbQCRKJHL/F3p02F/sbfbOY+iDYn1TjtjMe+7MwMZ7v02Sqn2VmD2UbBaaEQaNlewWz+zAndeIjI0gMcpiNrwxObfC0eD7/3K6amf0WaVMjcJKGjzUFaCasXcCRqnnd9aEebhzaEyQCOe4q4dSaF2zneezZNffdnR06bBi4oTrVE2UXBUfSQF4oZWGfiYMeCkF68ObS1iNfOuBz9ixwqoZTgfkB/ku45HYjylztlOaOwFUadnE3H2g5M7ckMf9CFmmGptk7FILklhxbBoB7q1lujbjMt1wGdytYLWAs4gI3a9g8FhBV+Tujh7ahb8xhiTskJ0huVUqMWolXU3B5H/4ZeNrLcQrjmfD6BfZuepekfGJANzHG/RrWiRjYnG27PEQTeRgrW0kJksGOCszZH68WW383t6odRi1FWhwEntIQtZZKbnWwjOiDV5sB682H+7ycPIxTEmSV6qfV2h7jMaax7wksm4NZFpYWGQEdWZmzEsfw1eO9Xic8jp+MIBmcrcB34+0EDUbRJFqrKketGC2gBFocgejVh3Mr1GEEO3xasjqGSQiSw1uAW30yBKKD3YNLSnt+SFo6BKLvS/Tg0hL+wWPICxS8sZ/ganASgmRwkfLTOHpSwwoegNSa5nCEWR6uNRSDxgiYD3Phqd5e12kGDyl4bZ3dor+beyQFzHa1d7WLTpAcnAtzLjZIb6WNQQlmsJdKIOPvCmpH7TaLedHJ7LwvgPs9sPzjDNhovp9PbfgUBDFLdrvW9vyCwUc1nOxhP9A0tyshrVAGj5XTOMQp4dHCfjlG09U15+SMGqZH/rFFuOPWB8lgO2W1bJ1aCecWccWhX1WtnK3pNAAxio3ADdqe4J0XK7DnnfjfVdJGD8XqP+oTJIO5yp6OdWm/1XYH9Zcuxi42OZxBuvLFLkMQG/iEtkdIYjWzkWh0uVxPAp+s7U3QKC0mQV6U28tJrhtIp2k4PEoWVp5GNgNjgdk8TtQy0jl8ykODzCz4GIG8KF+80QiSwfbKqqC7tAUzYENfCZpBgXO7Y7+jS+dikxyBqKWkZ8L6C+xTxFXQI9rSc0yCnKWsEEJtK+H8IqJ8TgZ7qzGQsawFZhoZlLB/4VmYdVD6GZynYF9HiJwUa1xiRSNIDk96/LzaQsNNLgN0sPmLHG4JORHqEFtMwhF4QMOmPgr6Nb8Q/tZsJjsO5/caXhljsSAKQTxVz43kzk6Oidaa5VZb9/haQzEYBQJRX9g9f0ZvpeHGpknHIojzS1QJ+xZwQdOBG//qCLs50vLyGPEkRhIEor2wZ7CfgnMdRxnlPSQWQQxTzSZRbdP2+ECUzaQMPqfg/bWdisEoEYj2wr4UrFnAA47JRHkPiUUQc6npFQ4D9y5aMyCm2RT8kTw9HFAfsYmCjftwd4xh5LamossNRPMe0rhkXgyCrJ67PxFO0QG3CycDVg4jxvi4DS2G0RQ4KkZvPjvrMYjZmCCVhu1Vjsm/vamO1aJ+PL5JHIcmZqkQMBKiBawbQ3Qjgx3UYB3h59NQcEgfPt0kr8YEyW25ZqdLThpeFGPpLYPdjVR+k8TFd7gIGOHrAi6O0Ks5sfEHxzif1PbaQ3CLQRCze+5yTTLahSjP5b5gcMQxKgKmsvDOMSLmttqwqTo8sMXQ84pBELPMam4Q1rVrNWxXZ1T390pj6446O/l7+xCYAX8d43hRDtdg9X8HNvMro9/wRmkMgpgzMhvUDRa4UvvdE5k0pJzYdUC6vSYf17b4aaOWwxW4idhdpx2INGgwMQhi1qVr71+UcFHhfhR+qjGb6rI/wx4jkDZ+CPxE25f1Ri2DC5UtrlPXbtUNFTRjEMTU4Fi1bqQlfKGwQnDBLbfqjEalUdqYIqBgVh8a/UT2qH58r4b1m0AVgyBPOV5mOUM3VFLP7R6KUWqUNqYIKDi4D2c2GX4OpwO1VYZNIaUCXt2krxgEMYUWX+wwiBO1PVgY3HIw+y3RDjoGD0QcgxFQcHG/Ya3DHE7ArSSDuYLb6JxeDIKUjmgdrm09juCW21tiqwQHEMeRI1DCw0XDYkVVRWRzvbq2NVV/jEGQa00FobqRlrBnAZfU2U3195mwzoKEGqyh4xI/fwQyWGOeXWwJah61Zm7T8NagTiqnGAQxy3bH1g1CwYZ9+GGd3VR/H2ZB+9Axip8bAiXsU/jJ+fxZ4B68qYS7HHpr/N7bmCBmkDmYQpqDlu8a/7zK4ItDrqXugL+YhCAQY4c7g/NryrndUolaPxMyxkU+UQhigvXgshJ2mzCYXwMXNj0P40jCJjiI73ARaLz8aoabWf3ekyZKlBpVzRlwwjz3uyNTZh+NINWAt58Bry6t9M9NGu4BGjG4Gnkvj1R+bbifA+ltKgT0wguh9CMg9LJKLH1WCY8oeDzGVdvoT5AIiQ4KsXIOjyfuQ8IPEQFtVyOfGGKXQV1FfYIEjcDBqQcblAmk7R26FpNECDRdtEk0rCXCjgVB5IjJsD4OQ+0niupI6hGPBUEy2EM12ENJDaLE90dgGAU4/Ue1pMdYEKQHs8uG53digCUx4iGg4EN9+Gy8iGkijQVBcjgOOCYNBBJ1RAhEuRuSeuxjQRDRv0r9MRh+/BI+XzhqOQ9/dC/0OBYEqQrN+1StGiWm0rcbAlfoJTeW3TyHaDUuBHG6pD9E3KSr5ghEE/FoPpSpI4wFQTI4R8Ut1ZYSU4nthkDU2pRuXfpbjQVBcnvRv/bEsH/64jFCBN6h4YYR9u/U9VgQxGTiqoXklLUYjRqBaBpZqRMZG4IYZe8FcHQJe6cGReKnQ0DB7D7MSddD3MhjQ5BFaeewNWCqDc2KC4VES4zA7dUJ7+sT9xM1/NgRJGr2EkwQqEFACCIfEUFgAAJCEPl4CAJCEPkMCAJhCMgTJAw38eoIAkKQjky0pBmGgBAkDDfx6ggCQpCOTLSkGYaAECQMN/HqCAJCkI5MtKQZhoAQJAw38eoIAkKQjky0pBmGgBAkDDfx6ggCQpCOTLSkGYaAECQMN/HqCAJCkI5MtKQZhoAQJAw38eoIAkKQjky0pBmGgBAkDDfx6ggCQpCOTLSkGYaAECQMN/HqCAJCkI5MtKQZhoAQJAw38eoIAkKQjky0pBmGgBAkDDfx6ggCQpCOTLSkGYaAECQMN/HqCAJCkI5MtKQZhoAQJAw38eoIAkKQjky0pBmGgBAkDDfx6ggCQpCOTLSkGYaAECQMN/HqCAJCkI5MtKQZhoAQJAw38eoIAkKQjky0pBmGgBAkDDfx6ggCfwKB99AFF5YPFwAAAABJRU5ErkJggg==" vertex="1" parent="1">
          <mxGeometry x="50" y="160" width="120" height="120" as="geometry" />
        </mxCell>
        <mxCell id="JtydHf2yTpNfP8-nZof8-13" style="edgeStyle=orthogonalEdgeStyle;rounded=0;orthogonalLoop=1;jettySize=auto;html=1;exitX=1;exitY=0.75;exitDx=0;exitDy=0;entryX=0;entryY=0.75;entryDx=0;entryDy=0;" edge="1" parent="1" source="JtydHf2yTpNfP8-nZof8-3" target="JtydHf2yTpNfP8-nZof8-5">
          <mxGeometry relative="1" as="geometry" />
        </mxCell>
        <mxCell id="JtydHf2yTpNfP8-nZof8-3" value="" style="shape=image;verticalLabelPosition=bottom;verticalAlign=top;imageAspect=0;aspect=fixed;image=data:image/png,iVBORw0KGgoAAAANSUhEUgAAAFkAAABACAYAAABx0tv8AAAAAXNSR0IArs4c6QAABPhJREFUeF7tnF1yGjEMgC0Kr6W5QXKP0IQzhM70LeUkwElC3jpTcgY2JfcIN0joK2TdMcuSDdiyV5bZnyxvCVi2P2tlrSQbREGfH3///VJdxy15BVKeS4Dz7FBAymXyN0RCxI/tjVj+7p/t/lfQoIndArEdqZkCq6AKIa5Big9Q3QTKSAg5qRrwk0BWcCXEt0LAtRtM+69AwvDL21tUBe0OCnmweLkWAkaccLP4JYhlK4ZJ2WEHgzxYrEZCiLFdJzl+IaP2Rg7LqtVBIA8Wr/N82isjCbDf1NRGqNCrzdDVdiutBhkPZ72ziGPZOGWwQv45fznftOHOEfC4vYnvbdqXmJzWlRBSmR6rTVe2+s/3r1NOSL6y2CAngFvP+IAS74CqbQq4hNYtSLF1/0yfsoFmg2wzEZwT38G+s5iSsYTETdz54UuQYlmEz80CGQMc0lbePK0UaFSrzfquniqIXExW4eYC9yJkNOt96/sOEmvP48WE9U68NBmzw0qDHy67FyEBp7J5QCtvRkw763hi24zzzskLsmlypwScTtjPdLxjU2PvrOM+J2gyZNybiPtUDyKvlmR/f/O0etZthsm+kC9WwrlRkyEjWjx9uOwOfWBR26qFX3dao1YMjxLeloeBpKzP7fKi097EFxwa7QNZ6mDMel2yTCpcSrt0QWwRQQ7QJCDIRjOe9boTyqSLamPzuTlsNCtkjlUvCrZl4/RSHiLk4wBQER4F94JgL1U+CpQbMuJVeK02NzCqPJOHIgT9xSo35N0OPddMohaQMRtN1WZGyMX4xlSNxdoh9pmkSLkhJ/k6eXc4SOoqh4DkK9NsEmkmIzdkk/tWJ8hqkUy2mTLPBrJB7c3vAvnNYgPZCHmb9jra4CkxjVyQsRwe5THytZ0h25u8KEoSwgmyS4K0bpDVAg4WK218Jllc90C/FbJrQPzzQd4/R9asOwrZlhzNPq6fGLJVq7WQXcxDFrBK2xQVQw5rl1/nLnHnrfFAMipHkF0BK7AqOF62QpIQ0NN6D1vs2QT6CLLNRIRKNoaAwy3TJdCvA/0BMrbJUVwX7kmWRZ4t0K8KLbPJiz1kW3qfO4NbFmDUcey0em5K0GYdgT1kk5ngSL9QJ1L2djjo92DSFnIZ0/tlB5yODwedxDm2kOuUGC1icWzlEWDS4jrk7E4JHAuNQt3TSacCbdJmFbUDzrjpqSZUxn6QqN0UdF5FYypoy6g3GTIC0xeh64pp0yh3K10CdvsSp4uZ1jXgE3qJTFnuBjIjeePmpzMXjSbTyBvNRWOTaUB1rUxOhNa7UAKqUmfMh8hfkj4nmHgX2mNadUwn+WM0S8AKMZs3Piby2EvdNkDEWZLENObKiTGVDyizm0I2newkVTFWjpDngG1H7XahTn1Jkuq7sc34CrjE4veZEdMG2GRGcMhYRik9kZtJP5m1OU9JkueTV6nmeGb/vfozV7a6SaYmOmCrTTl8Yz6quzAfTEk6qNItViEeC3tt4HE1vraCaN1pGVPdmYGP1QUdRZyhDgEPk5m5KHCEndE2xeGNtXCOoHdj+3hR06khhOovvXnR5fA7VvxjrOq02Z1QE6umXPzADlt9cjXh+I/aJSxshayGEfqmQv+pFiHB/WYwJ8jpFFLYrjW7RUw9dJ9Kc0HG93k2/FyQsxM4vKAjce/y3Y4SGoiv/GQzk0t1+2JesNm+/wNgcpbABvGOegAAAABJRU5ErkJggg==" vertex="1" parent="1">
          <mxGeometry x="240" y="203" width="89" height="64" as="geometry" />
        </mxCell>
        <mxCell id="JtydHf2yTpNfP8-nZof8-4" value="" style="shape=image;verticalLabelPosition=bottom;verticalAlign=top;imageAspect=0;aspect=fixed;image=data:image/png,iVBORw0KGgoAAAANSUhEUgAAAEAAAABACAYAAACqaXHeAAAAAXNSR0IArs4c6QAABSxJREFUeF7tW8112zAMBtVB6m6gU51bHL/s0XiSJJPE2aPPcW9xT9qg7h6t2EdStikS4J8g2Umjq0SK+IifDyAoYMKnvrpdALQzaOEzCJj1fi1hD1X1A+DPvnnd7qdalhj7R/XV8g4kXAPAAsARmvy53AKIPYj2cWwwRgOgE/w+XWgKDbkF8emxef2+HWOz2AHQai7/3gMIteOcz3oMjWAFoP66vAcBDxGplX1vQds8/Nbfap8gFwBC+YW+b3AnE9UNpzawAVDPb17oXc9T46j5SHhofm4eOdSLBQBa+DzBXYGCQDCBMBgAQvg9iGrFpaqdad155sEAwiAACJtnFf6gFSQIov0yJFQWA1BfLWYgq1+O2o4ivAOC62QVX7gpBaEcgPlSCW977FGFD4IwwBSKAEBVnzk8hTw8/v8yUygDwNt9uW12LzccYSl1jtpdQ6EWZAPAiX6qsNh3XOtIBsDEZPkNITv7Zrf5MkSYkrGdE35BmGMWZY4CEGVlE9q+R5SC1DuNhJEAGITFUySpOcvuHyOCTrxapQX0I+EBqvaZCpMoACaji0wMsAZRPXOxvRIzUGOML4glUkob5AoDwQMgIvxFCE2BZaXiWFaJEqYeAAS7A4Dpw1ypRmitMCwVc5AeCH0AsJS2ML4OEYBrbD1fPgGASqJOjyPPEQBU9c/o4dlA8CNFTwtOAFwAu+MS2p4HNQdLCzQAXKxqDAE45gzJhwPwhu2ejBCuhnfmbQBwnd87sH2PNboOUcCqed2sOwCW0h7Q7DZRisyhmlPO0VF6FRUOz7rZbVYCif1npbdjgeJHOcNtBPVirIWcc9567mv6fwMApemYCQAMrLQaOno8FDWbjiROHVMrUgplvzkDkVCoTf3gBPsFToYo4NHQzuseFk3nHWli5TpqH4DOB+Bh0ISItKXgX10cAG6o77gOxQQH1doNqE4ickYNwPMcU0U2AGDp40A2eOwGOSpIu7ULEvqfUBUfoadqKHWAc6hjnpIhrL7G4AuGmBHH2NgZhpUOo0WEwabAIUTpHPjZZb+40y+IUFXWSGGxdIFjjQsUdD2W69cEyVKzKTNP3cWVCxLC+U9TICaNV4WjrS5dF5fd5pK7Uq7vTy134S40wp/R5wIGBL8pgWvh080TPLUOpr2JhyPTiZL/J53yhoYl5f2Renv+ssYfkXw+mASAvV6iD9C0vqGPnDnHa4Fv3W7SztckzUuf/gzWAHcCJL6SqkZVYrBFefMG2ChCb6Pqjv0zWwM0dfajxAcAlLP50IAcbXG/fesmQJ40E4K9Kx8Qrfg49QHUt1ysBvinyJ4TTOgcj4/JA6Aoc82OAkRvsC9MsHtc7bffczDQBNSk2SBEqPDtAtr2Wt/vUYmPaUVxqzgo10bP5nuBuA8AQbuDAhH/yAIh0CSly9r2URLCI+jOkWBaqhXg1PMf8RclICSX9gc0ScXbZmgtcHY/ln4jDrNHz6nxkXFqDhwArLWkv//J54dWg6VqXNJXZdzbHuHbJri/SKDn5hNVzdJX9OQMhHgG6BdnKQDcTnDnf/Hdz0n44gBAEuDknQLH99gtcwQAofs/aTuSBwDSzGRPkFGiTwMBjlGrrCSWsaAUIAJtbTq05fYiRx2wNn7rYARNTf0LEYfPsheUBoLuTlVRx7qEkdbv6/kDczAbjmB2hwi1wM6Ln4qNzDuPAq/vF6un/A5xUquv3SMU2yGloqV3cmJzj/Xeu1BBRLFsKjzWgrnnDbb5WyXydwuAAhQp5nrN3v8AEPL/bq1QtXwAAAAASUVORK5CYII=" vertex="1" parent="1">
          <mxGeometry x="800" y="400" width="64" height="64" as="geometry" />
        </mxCell>
        <mxCell id="JtydHf2yTpNfP8-nZof8-14" style="edgeStyle=orthogonalEdgeStyle;rounded=0;orthogonalLoop=1;jettySize=auto;html=1;exitX=1;exitY=0.75;exitDx=0;exitDy=0;entryX=0;entryY=0.75;entryDx=0;entryDy=0;" edge="1" parent="1" source="JtydHf2yTpNfP8-nZof8-5" target="JtydHf2yTpNfP8-nZof8-6">
          <mxGeometry relative="1" as="geometry" />
        </mxCell>
        <mxCell id="JtydHf2yTpNfP8-nZof8-5" value="" style="shape=image;verticalLabelPosition=bottom;verticalAlign=top;imageAspect=0;aspect=fixed;image=data:image/png,iVBORw0KGgoAAAANSUhEUgAAAEAAAABACAYAAACqaXHeAAAAAXNSR0IArs4c6QAAA45JREFUeF7tmouNFDEMhn2VAJUAlQCVAJVwVAJUAp2APjH/yhrNKHZee9pJpNWddjMZ+/MjzuPJLt6eLq6/LQDLAy5OYIXAxR1gJcGZIfDRzN6a2Tsze21mfzbv4y+fr+67aY45A8BnM/uy00jKA8K3n2b2aSaI0QB+bBZHyecTKwMBrwCUPOP9LAgjAUh5rB1V6JuZESq0NzMgjAIgt0d5FMk0PevDASivzOzXBkUhlBn3sO8IALjx703QrPISUp4ABMJj38gp33t4yAgAEh4hyew1DYiEkJIkIASD7/h0gdAbANZC8BrX34MCJOMxK6C8mofDbyTX6tYKAAE/uLldgiAUwrU0XyvsxxHo5vfUAkA4WcgLp6KG+GyyTIGc8gzdmmaLGgCi762Nwt5NWywfffav63hWYxTHygLwyk+v2nbaMF2qrFayTOeEDADvds2xVzRNvIPykAqo1OyTAdBS3MTVqe/p1xzhvJABoNI2Rbhen6onVYOEPTQDQEmHun52wovSUI5CPuQstigAH//RZ4ovH9SBMhx5Q2GQUUYeEBp4kHKRYYcBSA0ckXRQHxkqZNxQp01QAXjJOQBRARBei2QA+GkwusExyMinw6an6gwAvwp7iVNh1fogAwDsvtjosh7v5CJ+cZYyThYA8vp9O21UsBiidduqSoDxRgnP/xq/BgDPUndrFzch69Cu4erPS1ELQGP47Wy+2+/zD9V4GxzFq5fjrQBmKDj0HbMBMEdH6ohov2Y4C0Azwv8DMDNEGskz6gFk9Mis0nSo2ssDVH5GBI4cfrL3EGkk4QjQ07F6Akjvx0U0LPRpzhUtALQXp7pALquz/g76HQ7R9b0tABT72oyUtE0uGaTmq9Gm97YC2EOYobwU9hCq39sDgCBUV2NBqx91A0LTe3sBaNDhvo/uAegi02ipSJT+fJ81xMzF1W0q9gBQPlrQ9ADk1+1HF6l6vONsjNuUfU8Afvl6lNUvDYCaQjdB/P+9oBQ9QDe7uPyAqypmsBSCRet0L7Cuw+m7Mw+QcIQFYal7Rn5XOgsCPXy9UgQg4XTUpMMQfz7Ija1M45aovzB5BkB7jbqAoSMurQ9qLl7oGF3yFgHQ0buebn4c3djKQPB9Vw5w94gumQTvOQ3eSud9ITS7GPEhsY/T2tAqPUc43473VylcwvXovy8PeHQLl/RbHlAi9Oi/Lw94dAuX9Lu8B/wDoo7pQSowniYAAAAASUVORK5CYII=" vertex="1" parent="1">
          <mxGeometry x="410" y="198" width="70" height="70" as="geometry" />
        </mxCell>
        <mxCell id="JtydHf2yTpNfP8-nZof8-15" style="edgeStyle=orthogonalEdgeStyle;rounded=0;orthogonalLoop=1;jettySize=auto;html=1;exitX=1;exitY=0.75;exitDx=0;exitDy=0;entryX=0;entryY=0.75;entryDx=0;entryDy=0;" edge="1" parent="1" source="JtydHf2yTpNfP8-nZof8-6" target="JtydHf2yTpNfP8-nZof8-7">
          <mxGeometry relative="1" as="geometry" />
        </mxCell>
        <mxCell id="JtydHf2yTpNfP8-nZof8-6" value="" style="shape=image;verticalLabelPosition=bottom;verticalAlign=top;imageAspect=0;aspect=fixed;image=data:image/png,iVBORw0KGgoAAAANSUhEUgAAAEAAAABACAYAAACqaXHeAAAAAXNSR0IArs4c6QAAA39JREFUeF7tm4tt3DAMhplJ2k7SZpI0kzSZpO0kSSdpOkmC3zgWgiGRNB+yAVvAITn4JJGfKIqirDsi+kxEP4joO9WUu2Cz78H6vepvRITPI4R7IaJvBZ1wk0cEwLK9QrgKwi3PIwN4OzsAugAMpsAvIvqT5BfQVqRkOeevPUc/soBHIooKHlG6oi5A/lw3fAEYTIHLAq4pUOsDEH3i05bXionftLmrD4CyD7eIcxR1PhHRswAB9SKQpgNgpaGYtdwPlITwnxRAWh/TAHgUZ+G/3DYpa2WwX0G7eO4tUwDATLHWrue3RWjEHVh9eoX3K5F9RTkAbKm3mDsrim0plB/N/1bw0RSxAC4FgFG3hKxwYvj8u5m6xam1bWuOUgJRBkBTnkf492B+a6P3t5lSaMvrB0oAaGYfGTGA6Qnt9QPpAODw4J1HJTJfuc2edXmhpgNoTbOFsOTagkELtzfqA8/RD3wItu2WnWsqgJHpR+aotPxpfsICJBXAKI+YYfasbFdggYTmbNMAjLy+FMhYRrAX/UnZalYY9aQ9hAjU41F7ALJNH0L3rIyVxry3xBAqeA+AtSllOr3eaGmRoqqk9AMPAF6fkWSEcGmj0QgK08d+wuLddwEQ6vRIlb0WcCQdQrIwAE44eLaxIQF2rLwEUACgxfM7ylje9RMASOFmuQQ7d7Acjp4ZwHI4ujXk3HnQUrtfpkC7rqe2fvDGEMM8X8vgwUepXDyvBSBUxUkPCnZiMKc9Cp9B4O9i0luF8ABYp8LQMfIAsyFAaaxgbdl8qu0BMGs7rA1mb/nenJPwvCAxihw3d65pKDwfvdonyZCWEeqZHsuamRIb6S9lo0dni7zUp70iIyVFK/0B4PNB6RqQli5PswB0LAlS5RS1PrUTo1QADGHthXlUstNYGYcw6QCgrLSVzoBgeddAM30elBIAGgQ81/L1PWdnURz1tqw8ZQAsEBgEH2W13zkLBTPHazD4bjlq36J8+irQG7WZmSWr2bdylloAdyR56kDc879q5AxiCgBeHbBR8rwuI0HyjPp0C2g7ZEcG8t5sc8ZKUr4KaKbNb4XCKvC/dj2HlcZ7RJknQ9OmgAUIT5X2t3yRSavvfX4YAF4FovUuANeFievGiP3KzOkvTUUdTlvfk3ds65de7LzuDZ786uxyOHrmy9PLCxLW5IPXLxzRB3DUef8BhIUsXiEZIwcAAAAASUVORK5CYII=" vertex="1" parent="1">
          <mxGeometry x="540" y="203" width="64" height="64" as="geometry" />
        </mxCell>
        <mxCell id="JtydHf2yTpNfP8-nZof8-16" style="edgeStyle=orthogonalEdgeStyle;rounded=0;orthogonalLoop=1;jettySize=auto;html=1;exitX=1;exitY=0.75;exitDx=0;exitDy=0;entryX=0;entryY=0.75;entryDx=0;entryDy=0;" edge="1" parent="1" source="JtydHf2yTpNfP8-nZof8-7" target="JtydHf2yTpNfP8-nZof8-8">
          <mxGeometry relative="1" as="geometry" />
        </mxCell>
        <mxCell id="JtydHf2yTpNfP8-nZof8-7" value="" style="shape=image;verticalLabelPosition=bottom;verticalAlign=top;imageAspect=0;aspect=fixed;image=data:image/png,iVBORw0KGgoAAAANSUhEUgAAAEAAAABACAYAAACqaXHeAAAAAXNSR0IArs4c6QAABLtJREFUeF7tmsuqFTsQhv/9JOpE8OgLOFJB8EwP6NAbKOgD6NDb0PMACgrehgpOFQR15At4ASfqkyi/dmkoK6mqdHdku1dgsWCtdFL1pW5Jegs7vG3tcP2xAfCHLOAAgP8A7Jvm/wDgKYC3o+X5ExZwE8CliqL/A7g8EsJoALcAXHAUvA3g4igIIwEcB/A4qNgJAE+CfWd1GwngGYBjQWmfA/g32HdWt5EAviYlHSLbWpPsBvBZKbwjABwGcBXAAwD3FwbAcTn+WQNu0rh+dV/SAl5OAnJ0Kk9By3YHwLmgpHcBnFd9CeDa9BvHv74EiCUA0NzvFcpTxlcAjigF9icKHRZK79TznwBwLml0Mc6hXS3I+Ee3uQBoklx5q1ljnwTw0JHwFIBHqg8VJwCr0dK0u4UhzAHQUp4rQyuw2lEANwAcVH++AXAFwIvKc5yPllZagXTthtALoKa8Zfq11fgHwN7pz48A3geWzXK3WRB6ANTMkQGKgWlEY0A8Y1jDnmxM6AFQRntRtmXyawEps4LMkQ6MWQDWpCNXXsOcLU8GgGX6GZ/Xwpepk+P05nXLIsOukAGgJ6K5caJso+9Sed04HiEQRja36xohvDBRAFbUz/q9lMn8bjWxhloatZ615AulxigArhhXrgw20dVvpa4WiGy5q63AKsd/my8CwPL9aOCzglTWZTgXN1eeW1iu5caCCACtRNT3e1deA8q4hLYCd6EiAHTwcwdVGrRK2JY1EDT9OBML9GK5wTACQB9kRJ6xFKtVb1bfLGQZw3LXpht4yugBI+ZvnQaVAsrBhrWp8QIfrcmzCO0GswDowBIBIDu21smNTomen0t/cYuW62gAzXToWUDap6YiR1JmZEWpTGtVyxQcSW06ZTfdKQsg4ptaACoowcxLZeXKWmmtB0DzGQ9AiuYkvQVAVllK3ZYJtyrGCAANblEAkfKyBkCUprlb8SFSN0QAcB5CPDR9S3wxoWcswPNnmcADIP303JF7gyiAcLXpAaA5kaQ+4m5N8FcBCJMsOm4AqJ1jDeLSLtBzyDr7XqBW8soNTsuCegBYabj3mP27bF4MKBVglD49RVYpYyUwlv2im58eALqs7b1o+SlvFEBrX8/iRoOIQMgAsHaGc6/awhZQO8MrV712HN3aAUYB1KrPuZetYQCR/CyVnr4Q5e90FwFRQvMAeHVHVK5a3RECEFn9llKt2FAD4O0MZcwhAKI5XYSKnBQTKi1CH6pSoUipPRRA9lDTPYTsqawqzyzy0pWXBVpX4JZc3ngL6o9FXrvzBG69mKCVcQ8gl9R+Gmv2i5ceAM4TDYQjzb9kOevV2wgATuYVQtnj66WNofvl6yiAMp/TLVql8NLKyXiyNe+9RTblygDIKCbHWiJs5ixQz0PFZQ/C/9IvQbQEXwOAzhwMjvxE7vdKWaVesO4PFoOwNAAvbVJwsQZC+TJpzFMnNj5vKawXMXI6HbLYNQDIzU9IgGSnaJkcHnZpADKxxIAyYIaFMjpyY0QX8q7F0nOsBUD7MoNYFgaVft35ykwYxAgApTDi47umH8XfJS4wJvS8IxRWWHccDaBb0LUe3ABYi+x2GXdjAdtlpdaSc2MBa5HdLuN+A4VaLVARZkmAAAAAAElFTkSuQmCC" vertex="1" parent="1">
          <mxGeometry x="670" y="203" width="64" height="64" as="geometry" />
        </mxCell>
        <mxCell id="JtydHf2yTpNfP8-nZof8-17" style="edgeStyle=orthogonalEdgeStyle;rounded=0;orthogonalLoop=1;jettySize=auto;html=1;exitX=0.5;exitY=1;exitDx=0;exitDy=0;entryX=0.5;entryY=0;entryDx=0;entryDy=0;" edge="1" parent="1" source="JtydHf2yTpNfP8-nZof8-8" target="JtydHf2yTpNfP8-nZof8-4">
          <mxGeometry relative="1" as="geometry" />
        </mxCell>
        <mxCell id="JtydHf2yTpNfP8-nZof8-8" value="" style="shape=image;verticalLabelPosition=bottom;verticalAlign=top;imageAspect=0;aspect=fixed;image=data:image/png,iVBORw0KGgoAAAANSUhEUgAAAEAAAABACAYAAACqaXHeAAAAAXNSR0IArs4c6QAAAbJJREFUeF7tmtFRAzEMRDedkE5CJZBKSCqBTkgn0AmMGDK58eRA9npOp/P6Kx/n2H5aybLsHQZvu8HXDwGQAgYnIBcYXAAKgh4XeAbwSijlOgb7PzVT+ARwAXAGYL9nmwfAB4CHmtGLbyMAXKfwBuDIAvgiFm9dIwGY9fcjA5ga4C4HjwtkVoAATFxQCrhHQC5ARvj03T0KSL9IdhsUgC0T8LjA+wyA1vT4v37lnF4AHAgjPLIuwCZCtXMvAZgBGAB/GtmjgGgAvQ5jYYkQqwAB6HQclwKiUmG5QCWBMjCzQTj9LhAOgCmIVhr/5/OyhseOT9cEWxaRpo8nEUqzmJaJCkALtS318SigVxCyA81TADw6CPbahpa8GptyDs8DIm+GdC+ge4Hb3WTYaVAu8IteQZB8aNG6g2oXiK4Kp48BrdJL0c+TCqdYSOskBaCV3Fb6eRTAHoZqWakoWhBjDRCeB7AK0NWYrsb6PNUNOw2mdwGrCdpJbqnW84GEvRinX4jYkxYrZp4WItALgD2UtoKoQZhtnjxgoXXHDCMAMdzXM6oUsB5bxMxECojhvp5Rh1fANzAgUEEU2AcXAAAAAElFTkSuQmCC" vertex="1" parent="1">
          <mxGeometry x="800" y="203" width="64" height="64" as="geometry" />
        </mxCell>
        <mxCell id="JtydHf2yTpNfP8-nZof8-10" value="&lt;font style=&quot;font-size: 17px;&quot;&gt;边界&lt;/font&gt;" style="text;html=1;strokeColor=none;fillColor=none;align=center;verticalAlign=middle;whiteSpace=wrap;rounded=0;" vertex="1" parent="1">
          <mxGeometry x="602.5" y="100" width="60" height="30" as="geometry" />
        </mxCell>
        <mxCell id="JtydHf2yTpNfP8-nZof8-19" value="&lt;font style=&quot;font-size: 17px;&quot;&gt;DMZ区&lt;/font&gt;" style="text;html=1;strokeColor=none;fillColor=none;align=center;verticalAlign=middle;whiteSpace=wrap;rounded=0;" vertex="1" parent="1">
          <mxGeometry x="760" y="350" width="60" height="30" as="geometry" />
        </mxCell>
        <mxCell id="JtydHf2yTpNfP8-nZof8-20" value="" style="shape=image;verticalLabelPosition=bottom;verticalAlign=top;imageAspect=0;aspect=fixed;image=data:image/png,iVBORw0KGgoAAAANSUhEUgAAAEAAAABACAYAAACqaXHeAAAAAXNSR0IArs4c6QAABRpJREFUeF7lW9GNFTEM9HUClQCVAJUAlQCVAJUAlYAGvZGMz4nH2ey+j7fS6enuZRN7PB472b0ne/Dr6cH9t3sD8MLM8PP9XoG4BwBw+K2ZfXRO/zKzL2b26WogrgbgtZl9mzgJIN6YGT4vua4E4MMg6r/NDN+BGbguZcMVAMCxz2aG6PNCziPSvLK0YEqcyoYzAcicgsPI/VGuj1hymjacBUB0hNR+Lyh+xhiwACCAFVuv3QDA8Xcun2nsLOqZQyP2AAgFRBmkHQCMjK3orhg5A2ILI44AQOVGxOMFkUOkdgnYDAis9VVIrRTwLgCzaDPiMGaX49Ho2fosnz86YCgAVE5fWrdviNAmlFZfXgkYbSqDUQGArm22QAttJekXxlQBmvYTMwB+DtQcndv2crTgeJYeBCPqEhjxMltjBAAmQPfG+n3WRoVCCibtBBVAgLnYdJHBEOVna4wAgPNEEcjtFjUYiPTCJ4zCWt1eQSEN5geTcWEdgPDfpQBQ6YRiCMf4fPU7PwKCcVvquzOKqdwCwLeyuxjg58yi7cFBbQcQOw5K/qwwwBuLXduqIZlCx51gJmbcPR7dA/gUaGmAP7joApDVaEQcNZmi5LfCoxSK6QLgumLpxbwFgEdOFSd/D5yCwaQynQSzAK4CgNcN3PPKCfOwrAU0PQBpKo8EbgUA0na2W1sBwPvEQ1RUEIWZpZbNFJ7iUeUsDYTaUtlHtD4KAOZlcBQAfDlPfZ0BwDZYpRvr+rNa69CABsCBIyc8PDBRqhNL4DCICgCwX+kFRvuGTp/QGasAMC2BlWPdUsjxac/d8ew2lq14ZBSfKVRBkXRsNkm3FBKAyjAVCzCKR2D+HoptBXRZAisGSAg6ywiYIk4KCCMAkNc8cZrNU1aACgB836kEBCxtOBSPw5gRALAp7evD/WUFUADoVgI1OgoeGQAdkKebIBpQ5WtXCFkKq/xcBYB5vaUCKAzwQqi0xDt1IGOAyjBJABUAvBAqHSHHKzlasSACQKcUjZEPdKoUgJFdHWCZOvqYOwJApxT6lx2gqgEY19UBsoC7wSrSo+95JMdzPKSgwixP/3K8woCuDsAhb8QqANl9SvQ9/cueRAHA64C6MeKGBU74VpanwJ3zAAZAEWGs54/zS//KAa4vJyVLVG/3ZIKI6ODvKgCcQwXes7Wkv1IFSMP2xLcbmQqMXgcAsognSMq5ZIv+HQBiNegoPEUUIPBEp2LAivO+dVcZI+3zyYKWugYFIwgwrDo1WnXeR1/pFf6ZqGoAxvLhBT5xqVpALAjCrKHya3Tmj6/fyX7JA0NO41eZZo4Nngnx8JROrLwG40+jOsC1GEA//GKS0oZ08I/BcD+eF7B7VNrt2B/4Rq19f5cBTAU+cFx9OSJ7YqTWeQ9ApH4r+l0N8AvvenwOIODEyqPxw84fAQD3euqt5G2kcuf36PwKe9pVIDPwHiBkj+CqvmII7ooG+MliLq9qghr9GPm26MWFjgJAUYzv/y9TcoJE3GEedv6oBsyYgO+2GHhbxHd5+NNK+U2x3cEAP3H2tndn3xCN9G0xv5PbXCWvdgOANWOerupCNs/WF6V3pkAWOR6R87vO+8O7mXRaFZixLOv2KjYg6jwz4Nzb8j0z9owUiOtkTmX/HJVFfTvlzyiDitbM2ID74z9Z7KwgU/uuYIA3AI76/xCLxl3dUi9th5WI79aGo2veRQQro3myhE/lwLOab+n7q1Ngycgzb3p4AP4CoAuUUC04+RIAAAAASUVORK5CYII=" vertex="1" parent="1">
          <mxGeometry x="710" y="400" width="64" height="64" as="geometry" />
        </mxCell>
        <mxCell id="JtydHf2yTpNfP8-nZof8-21" value="&lt;font style=&quot;font-size: 14px;&quot;&gt;互联网&lt;/font&gt;" style="text;html=1;strokeColor=none;fillColor=none;align=center;verticalAlign=middle;whiteSpace=wrap;rounded=0;" vertex="1" parent="1">
          <mxGeometry x="255" y="280" width="60" height="30" as="geometry" />
        </mxCell>
        <mxCell id="JtydHf2yTpNfP8-nZof8-22" value="&lt;font style=&quot;font-size: 14px;&quot;&gt;负载均衡&lt;/font&gt;" style="text;html=1;strokeColor=none;fillColor=none;align=center;verticalAlign=middle;whiteSpace=wrap;rounded=0;" vertex="1" parent="1">
          <mxGeometry x="410" y="280" width="60" height="30" as="geometry" />
        </mxCell>
        <mxCell id="JtydHf2yTpNfP8-nZof8-23" value="&lt;font style=&quot;font-size: 14px;&quot;&gt;入侵防御&lt;/font&gt;" style="text;html=1;strokeColor=none;fillColor=none;align=center;verticalAlign=middle;whiteSpace=wrap;rounded=0;" vertex="1" parent="1">
          <mxGeometry x="542" y="280" width="60" height="30" as="geometry" />
        </mxCell>
        <mxCell id="JtydHf2yTpNfP8-nZof8-24" value="&lt;font style=&quot;font-size: 14px;&quot;&gt;防病毒&lt;/font&gt;" style="text;html=1;strokeColor=none;fillColor=none;align=center;verticalAlign=middle;whiteSpace=wrap;rounded=0;" vertex="1" parent="1">
          <mxGeometry x="674" y="280" width="60" height="30" as="geometry" />
        </mxCell>
        <mxCell id="JtydHf2yTpNfP8-nZof8-25" value="&lt;font style=&quot;font-size: 14px;&quot;&gt;出口防火墙&lt;/font&gt;" style="text;html=1;strokeColor=none;fillColor=none;align=center;verticalAlign=middle;whiteSpace=wrap;rounded=0;" vertex="1" parent="1">
          <mxGeometry x="784" y="280" width="80" height="30" as="geometry" />
        </mxCell>
        <mxCell id="JtydHf2yTpNfP8-nZof8-26" value="&lt;font style=&quot;font-size: 14px;&quot;&gt;云平台&lt;/font&gt;" style="text;html=1;strokeColor=none;fillColor=none;align=center;verticalAlign=middle;whiteSpace=wrap;rounded=0;" vertex="1" parent="1">
          <mxGeometry x="804" y="460" width="60" height="30" as="geometry" />
        </mxCell>
        <mxCell id="JtydHf2yTpNfP8-nZof8-27" value="&lt;font style=&quot;font-size: 14px;&quot;&gt;WAF&lt;/font&gt;" style="text;html=1;strokeColor=none;fillColor=none;align=center;verticalAlign=middle;whiteSpace=wrap;rounded=0;" vertex="1" parent="1">
          <mxGeometry x="710" y="460" width="60" height="30" as="geometry" />
        </mxCell>
      </root>
    </mxGraphModel>
  </diagram>
</mxfile>
